<?xml version="1.0" encoding="UTF-8" standalone="no"?>
<!DOCTYPE svg PUBLIC "-//W3C//DTD SVG 1.1//EN"
 "http://www.w3.org/Graphics/SVG/1.1/DTD/svg11.dtd">
<!-- Generated by graphviz version 2.40.1 (20161225.0304)
 -->
<!-- Title: %3 Pages: 1 -->
<svg width="1198pt" height="476pt"
 viewBox="0.00 0.00 1198.18 476.00" xmlns="http://www.w3.org/2000/svg" xmlns:xlink="http://www.w3.org/1999/xlink">
<g id="graph0" class="graph" transform="scale(1 1) rotate(0) translate(4 472)">
<title>%3</title>
<polygon fill="#ffffff" stroke="transparent" points="-4,4 -4,-472 1194.1811,-472 1194.1811,4 -4,4"/>
<!-- [root] aws_internet_gateway.igw -->
<g id="node1" class="node">
<title>[root] aws_internet_gateway.igw</title>
<polygon fill="none" stroke="#000000" points="658.0905,-180 497.0905,-180 497.0905,-144 658.0905,-144 658.0905,-180"/>
<text text-anchor="middle" x="577.5905" y="-158.3" font-family="Times,serif" font-size="14.00" fill="#000000">aws_internet_gateway.igw</text>
</g>
<!-- [root] aws_vpc.ust&#45;vpc -->
<g id="node8" class="node">
<title>[root] aws_vpc.ust&#45;vpc</title>
<polygon fill="none" stroke="#000000" points="685.0905,-108 578.0905,-108 578.0905,-72 685.0905,-72 685.0905,-108"/>
<text text-anchor="middle" x="631.5905" y="-86.3" font-family="Times,serif" font-size="14.00" fill="#000000">aws_vpc.ust&#45;vpc</text>
</g>
<!-- [root] aws_internet_gateway.igw&#45;&gt;[root] aws_vpc.ust&#45;vpc -->
<g id="edge1" class="edge">
<title>[root] aws_internet_gateway.igw&#45;&gt;[root] aws_vpc.ust&#45;vpc</title>
<path fill="none" stroke="#000000" d="M591.217,-143.8314C597.4366,-135.5386 604.9228,-125.557 611.7505,-116.4533"/>
<polygon fill="#000000" stroke="#000000" points="614.5806,-118.5133 617.7806,-108.4133 608.9805,-114.3133 614.5806,-118.5133"/>
</g>
<!-- [root] aws_route_table.privateroutetable -->
<g id="node2" class="node">
<title>[root] aws_route_table.privateroutetable</title>
<polygon fill="none" stroke="#000000" points="867.5905,-252 667.5905,-252 667.5905,-216 867.5905,-216 867.5905,-252"/>
<text text-anchor="middle" x="767.5905" y="-230.3" font-family="Times,serif" font-size="14.00" fill="#000000">aws_route_table.privateroutetable</text>
</g>
<!-- [root] aws_route_table.privateroutetable&#45;&gt;[root] aws_vpc.ust&#45;vpc -->
<g id="edge2" class="edge">
<title>[root] aws_route_table.privateroutetable&#45;&gt;[root] aws_vpc.ust&#45;vpc</title>
<path fill="none" stroke="#000000" d="M744.9778,-215.8582C732.8593,-205.7583 717.9274,-192.6922 705.5905,-180 685.9057,-159.748 665.6818,-134.8166 651.3618,-116.3336"/>
<polygon fill="#000000" stroke="#000000" points="654.087,-114.1356 645.221,-108.3351 648.5346,-118.3985 654.087,-114.1356"/>
</g>
<!-- [root] aws_route_table.publicroutetable -->
<g id="node3" class="node">
<title>[root] aws_route_table.publicroutetable</title>
<polygon fill="none" stroke="#000000" points="611.0905,-252 414.0905,-252 414.0905,-216 611.0905,-216 611.0905,-252"/>
<text text-anchor="middle" x="512.5905" y="-230.3" font-family="Times,serif" font-size="14.00" fill="#000000">aws_route_table.publicroutetable</text>
</g>
<!-- [root] aws_route_table.publicroutetable&#45;&gt;[root] aws_internet_gateway.igw -->
<g id="edge3" class="edge">
<title>[root] aws_route_table.publicroutetable&#45;&gt;[root] aws_internet_gateway.igw</title>
<path fill="none" stroke="#000000" d="M528.9928,-215.8314C536.6321,-207.3694 545.8589,-197.1489 554.2112,-187.8971"/>
<polygon fill="#000000" stroke="#000000" points="556.8643,-190.1813 560.9675,-180.4133 551.6684,-185.4906 556.8643,-190.1813"/>
</g>
<!-- [root] aws_route_table_association.privaterouteassociation -->
<g id="node4" class="node">
<title>[root] aws_route_table_association.privaterouteassociation</title>
<polygon fill="none" stroke="#000000" points="1040.0905,-324 739.0905,-324 739.0905,-288 1040.0905,-288 1040.0905,-324"/>
<text text-anchor="middle" x="889.5905" y="-302.3" font-family="Times,serif" font-size="14.00" fill="#000000">aws_route_table_association.privaterouteassociation</text>
</g>
<!-- [root] aws_route_table_association.privaterouteassociation&#45;&gt;[root] aws_route_table.privateroutetable -->
<g id="edge4" class="edge">
<title>[root] aws_route_table_association.privaterouteassociation&#45;&gt;[root] aws_route_table.privateroutetable</title>
<path fill="none" stroke="#000000" d="M858.8048,-287.8314C843.2002,-278.6221 824.0665,-267.3301 807.3602,-257.4706"/>
<polygon fill="#000000" stroke="#000000" points="808.7574,-254.2312 798.3664,-252.1628 805.1996,-260.2596 808.7574,-254.2312"/>
</g>
<!-- [root] aws_subnet.subnet2 -->
<g id="node7" class="node">
<title>[root] aws_subnet.subnet2</title>
<polygon fill="none" stroke="#000000" points="1011.0905,-252 886.0905,-252 886.0905,-216 1011.0905,-216 1011.0905,-252"/>
<text text-anchor="middle" x="948.5905" y="-230.3" font-family="Times,serif" font-size="14.00" fill="#000000">aws_subnet.subnet2</text>
</g>
<!-- [root] aws_route_table_association.privaterouteassociation&#45;&gt;[root] aws_subnet.subnet2 -->
<g id="edge5" class="edge">
<title>[root] aws_route_table_association.privaterouteassociation&#45;&gt;[root] aws_subnet.subnet2</title>
<path fill="none" stroke="#000000" d="M904.4787,-287.8314C911.3435,-279.454 919.6206,-269.3531 927.1416,-260.1749"/>
<polygon fill="#000000" stroke="#000000" points="929.8708,-262.3665 933.5019,-252.4133 924.4564,-257.9297 929.8708,-262.3665"/>
</g>
<!-- [root] aws_route_table_association.publicrouteassociation -->
<g id="node5" class="node">
<title>[root] aws_route_table_association.publicrouteassociation</title>
<polygon fill="none" stroke="#000000" points="540.0905,-324 243.0905,-324 243.0905,-288 540.0905,-288 540.0905,-324"/>
<text text-anchor="middle" x="391.5905" y="-302.3" font-family="Times,serif" font-size="14.00" fill="#000000">aws_route_table_association.publicrouteassociation</text>
</g>
<!-- [root] aws_route_table_association.publicrouteassociation&#45;&gt;[root] aws_route_table.publicroutetable -->
<g id="edge6" class="edge">
<title>[root] aws_route_table_association.publicrouteassociation&#45;&gt;[root] aws_route_table.publicroutetable</title>
<path fill="none" stroke="#000000" d="M422.124,-287.8314C437.6006,-278.6221 456.5775,-267.3301 473.1469,-257.4706"/>
<polygon fill="#000000" stroke="#000000" points="475.263,-260.2843 482.0669,-252.1628 471.6834,-254.2687 475.263,-260.2843"/>
</g>
<!-- [root] aws_subnet.subnet1 -->
<g id="node6" class="node">
<title>[root] aws_subnet.subnet1</title>
<polygon fill="none" stroke="#000000" points="396.0905,-252 271.0905,-252 271.0905,-216 396.0905,-216 396.0905,-252"/>
<text text-anchor="middle" x="333.5905" y="-230.3" font-family="Times,serif" font-size="14.00" fill="#000000">aws_subnet.subnet1</text>
</g>
<!-- [root] aws_route_table_association.publicrouteassociation&#45;&gt;[root] aws_subnet.subnet1 -->
<g id="edge7" class="edge">
<title>[root] aws_route_table_association.publicrouteassociation&#45;&gt;[root] aws_subnet.subnet1</title>
<path fill="none" stroke="#000000" d="M376.9547,-287.8314C370.2744,-279.5386 362.2337,-269.557 354.9002,-260.4533"/>
<polygon fill="#000000" stroke="#000000" points="357.4224,-258.0052 348.4235,-252.4133 351.9711,-262.3965 357.4224,-258.0052"/>
</g>
<!-- [root] aws_subnet.subnet1&#45;&gt;[root] aws_vpc.ust&#45;vpc -->
<g id="edge8" class="edge">
<title>[root] aws_subnet.subnet1&#45;&gt;[root] aws_vpc.ust&#45;vpc</title>
<path fill="none" stroke="#000000" d="M378.5749,-215.9181C399.9278,-206.4921 425.3558,-194.0088 446.5905,-180 466.8323,-166.6463 466.7871,-156.4606 487.5905,-144 512.4712,-129.0972 542.1631,-117.1192 568.104,-108.2669"/>
<polygon fill="#000000" stroke="#000000" points="569.46,-111.5045 577.8445,-105.0277 567.251,-104.8622 569.46,-111.5045"/>
</g>
<!-- [root] var.SUBNET1CIDR -->
<g id="node10" class="node">
<title>[root] var.SUBNET1CIDR</title>
<ellipse fill="none" stroke="#000000" cx="106.5905" cy="-162" rx="106.6812" ry="18"/>
<text text-anchor="middle" x="106.5905" y="-158.3" font-family="Times,serif" font-size="14.00" fill="#000000">[root] var.SUBNET1CIDR</text>
</g>
<!-- [root] aws_subnet.subnet1&#45;&gt;[root] var.SUBNET1CIDR -->
<g id="edge9" class="edge">
<title>[root] aws_subnet.subnet1&#45;&gt;[root] var.SUBNET1CIDR</title>
<path fill="none" stroke="#000000" d="M276.6019,-215.9243C243.1328,-205.3086 200.8619,-191.901 166.8431,-181.1109"/>
<polygon fill="#000000" stroke="#000000" points="167.6167,-177.6845 157.0264,-177.9973 165.5003,-184.3569 167.6167,-177.6845"/>
</g>
<!-- [root] var.SUBNET1TAG -->
<g id="node11" class="node">
<title>[root] var.SUBNET1TAG</title>
<ellipse fill="none" stroke="#000000" cx="334.5905" cy="-162" rx="103.1819" ry="18"/>
<text text-anchor="middle" x="334.5905" y="-158.3" font-family="Times,serif" font-size="14.00" fill="#000000">[root] var.SUBNET1TAG</text>
</g>
<!-- [root] aws_subnet.subnet1&#45;&gt;[root] var.SUBNET1TAG -->
<g id="edge10" class="edge">
<title>[root] aws_subnet.subnet1&#45;&gt;[root] var.SUBNET1TAG</title>
<path fill="none" stroke="#000000" d="M333.8429,-215.8314C333.9498,-208.131 334.077,-198.9743 334.1959,-190.4166"/>
<polygon fill="#000000" stroke="#000000" points="337.6955,-190.4609 334.3348,-180.4133 330.6962,-190.3637 337.6955,-190.4609"/>
</g>
<!-- [root] aws_subnet.subnet2&#45;&gt;[root] aws_vpc.ust&#45;vpc -->
<g id="edge11" class="edge">
<title>[root] aws_subnet.subnet2&#45;&gt;[root] aws_vpc.ust&#45;vpc</title>
<path fill="none" stroke="#000000" d="M950.2334,-215.6686C950.9755,-195.2216 948.7178,-162.5843 929.5905,-144 897.0195,-112.3536 772.7167,-98.8282 695.3105,-93.3779"/>
<polygon fill="#000000" stroke="#000000" points="695.3943,-89.8756 685.1806,-92.6917 694.9211,-96.8596 695.3943,-89.8756"/>
</g>
<!-- [root] var.SUBNET2CIDR -->
<g id="node12" class="node">
<title>[root] var.SUBNET2CIDR</title>
<ellipse fill="none" stroke="#000000" cx="1083.5905" cy="-162" rx="106.6812" ry="18"/>
<text text-anchor="middle" x="1083.5905" y="-158.3" font-family="Times,serif" font-size="14.00" fill="#000000">[root] var.SUBNET2CIDR</text>
</g>
<!-- [root] aws_subnet.subnet2&#45;&gt;[root] var.SUBNET2CIDR -->
<g id="edge12" class="edge">
<title>[root] aws_subnet.subnet2&#45;&gt;[root] var.SUBNET2CIDR</title>
<path fill="none" stroke="#000000" d="M982.6567,-215.8314C1000.7808,-206.1652 1023.2073,-194.2044 1042.3143,-184.014"/>
<polygon fill="#000000" stroke="#000000" points="1044.2176,-186.9656 1051.3941,-179.1715 1040.9234,-180.7892 1044.2176,-186.9656"/>
</g>
<!-- [root] var.SUBNET2TAG -->
<g id="node13" class="node">
<title>[root] var.SUBNET2TAG</title>
<ellipse fill="none" stroke="#000000" cx="817.5905" cy="-162" rx="103.1819" ry="18"/>
<text text-anchor="middle" x="817.5905" y="-158.3" font-family="Times,serif" font-size="14.00" fill="#000000">[root] var.SUBNET2TAG</text>
</g>
<!-- [root] aws_subnet.subnet2&#45;&gt;[root] var.SUBNET2TAG -->
<g id="edge13" class="edge">
<title>[root] aws_subnet.subnet2&#45;&gt;[root] var.SUBNET2TAG</title>
<path fill="none" stroke="#000000" d="M915.5337,-215.8314C897.9466,-206.1652 876.1846,-194.2044 857.6438,-184.014"/>
<polygon fill="#000000" stroke="#000000" points="859.2825,-180.9209 848.8331,-179.1715 855.9108,-187.0554 859.2825,-180.9209"/>
</g>
<!-- [root] provider.aws -->
<g id="node9" class="node">
<title>[root] provider.aws</title>
<polygon fill="none" stroke="#000000" points="448.5905,-36 368.6572,-18 448.5905,0 528.5239,-18 448.5905,-36"/>
<text text-anchor="middle" x="448.5905" y="-14.3" font-family="Times,serif" font-size="14.00" fill="#000000">provider.aws</text>
</g>
<!-- [root] aws_vpc.ust&#45;vpc&#45;&gt;[root] provider.aws -->
<g id="edge14" class="edge">
<title>[root] aws_vpc.ust&#45;vpc&#45;&gt;[root] provider.aws</title>
<path fill="none" stroke="#000000" d="M585.4119,-71.8314C555.1975,-59.9437 516.1625,-44.5857 487.5241,-33.3181"/>
<polygon fill="#000000" stroke="#000000" points="488.4466,-29.92 477.8595,-29.5156 485.8837,-36.4339 488.4466,-29.92"/>
</g>
<!-- [root] var.VPCCIDR -->
<g id="node14" class="node">
<title>[root] var.VPCCIDR</title>
<ellipse fill="none" stroke="#000000" cx="631.5905" cy="-18" rx="85.2851" ry="18"/>
<text text-anchor="middle" x="631.5905" y="-14.3" font-family="Times,serif" font-size="14.00" fill="#000000">[root] var.VPCCIDR</text>
</g>
<!-- [root] aws_vpc.ust&#45;vpc&#45;&gt;[root] var.VPCCIDR -->
<g id="edge15" class="edge">
<title>[root] aws_vpc.ust&#45;vpc&#45;&gt;[root] var.VPCCIDR</title>
<path fill="none" stroke="#000000" d="M631.5905,-71.8314C631.5905,-64.131 631.5905,-54.9743 631.5905,-46.4166"/>
<polygon fill="#000000" stroke="#000000" points="635.0906,-46.4132 631.5905,-36.4133 628.0906,-46.4133 635.0906,-46.4132"/>
</g>
<!-- [root] var.VPCTAG -->
<g id="node15" class="node">
<title>[root] var.VPCTAG</title>
<ellipse fill="none" stroke="#000000" cx="816.5905" cy="-18" rx="81.7856" ry="18"/>
<text text-anchor="middle" x="816.5905" y="-14.3" font-family="Times,serif" font-size="14.00" fill="#000000">[root] var.VPCTAG</text>
</g>
<!-- [root] aws_vpc.ust&#45;vpc&#45;&gt;[root] var.VPCTAG -->
<g id="edge16" class="edge">
<title>[root] aws_vpc.ust&#45;vpc&#45;&gt;[root] var.VPCTAG</title>
<path fill="none" stroke="#000000" d="M678.2739,-71.8314C705.2757,-61.3226 739.246,-48.1017 766.7636,-37.3921"/>
<polygon fill="#000000" stroke="#000000" points="768.1562,-40.6059 776.2058,-33.7173 765.6173,-34.0826 768.1562,-40.6059"/>
</g>
<!-- [root] meta.count&#45;boundary (count boundary fixup) -->
<g id="node16" class="node">
<title>[root] meta.count&#45;boundary (count boundary fixup)</title>
<ellipse fill="none" stroke="#000000" cx="573.5905" cy="-378" rx="193.0657" ry="18"/>
<text text-anchor="middle" x="573.5905" y="-374.3" font-family="Times,serif" font-size="14.00" fill="#000000">[root] meta.count&#45;boundary (count boundary fixup)</text>
</g>
<!-- [root] meta.count&#45;boundary (count boundary fixup)&#45;&gt;[root] aws_route_table_association.privaterouteassociation -->
<g id="edge17" class="edge">
<title>[root] meta.count&#45;boundary (count boundary fixup)&#45;&gt;[root] aws_route_table_association.privaterouteassociation</title>
<path fill="none" stroke="#000000" d="M646.8816,-361.3008C692.6802,-350.8657 751.9605,-337.3588 800.47,-326.3059"/>
<polygon fill="#000000" stroke="#000000" points="801.3621,-329.6925 810.3347,-324.0583 799.807,-322.8674 801.3621,-329.6925"/>
</g>
<!-- [root] meta.count&#45;boundary (count boundary fixup)&#45;&gt;[root] aws_route_table_association.publicrouteassociation -->
<g id="edge18" class="edge">
<title>[root] meta.count&#45;boundary (count boundary fixup)&#45;&gt;[root] aws_route_table_association.publicrouteassociation</title>
<path fill="none" stroke="#000000" d="M529.0683,-360.3868C504.231,-350.5611 473.0792,-338.2373 446.7123,-327.8064"/>
<polygon fill="#000000" stroke="#000000" points="447.8215,-324.4813 437.2352,-324.0572 445.2464,-330.9905 447.8215,-324.4813"/>
</g>
<!-- [root] output.igw&#45;id -->
<g id="node17" class="node">
<title>[root] output.igw&#45;id</title>
<ellipse fill="none" stroke="#000000" cx="639.5905" cy="-306" rx="81.4863" ry="18"/>
<text text-anchor="middle" x="639.5905" y="-302.3" font-family="Times,serif" font-size="14.00" fill="#000000">[root] output.igw&#45;id</text>
</g>
<!-- [root] meta.count&#45;boundary (count boundary fixup)&#45;&gt;[root] output.igw&#45;id -->
<g id="edge19" class="edge">
<title>[root] meta.count&#45;boundary (count boundary fixup)&#45;&gt;[root] output.igw&#45;id</title>
<path fill="none" stroke="#000000" d="M590.2451,-359.8314C598.1213,-351.2392 607.6594,-340.834 616.2423,-331.4708"/>
<polygon fill="#000000" stroke="#000000" points="618.9927,-333.65 623.1699,-323.9134 613.8326,-328.9199 618.9927,-333.65"/>
</g>
<!-- [root] output.igw&#45;id&#45;&gt;[root] aws_internet_gateway.igw -->
<g id="edge20" class="edge">
<title>[root] output.igw&#45;id&#45;&gt;[root] aws_internet_gateway.igw</title>
<path fill="none" stroke="#000000" d="M638.2463,-287.9742C636.296,-269.2275 631.616,-239.4034 620.5905,-216 615.8686,-205.9768 608.9489,-196.1503 602.0348,-187.6857"/>
<polygon fill="#000000" stroke="#000000" points="604.6406,-185.3475 595.4795,-180.0254 599.3221,-189.8989 604.6406,-185.3475"/>
</g>
<!-- [root] provider.aws (close) -->
<g id="node18" class="node">
<title>[root] provider.aws (close)</title>
<ellipse fill="none" stroke="#000000" cx="889.5905" cy="-378" rx="105.0817" ry="18"/>
<text text-anchor="middle" x="889.5905" y="-374.3" font-family="Times,serif" font-size="14.00" fill="#000000">[root] provider.aws (close)</text>
</g>
<!-- [root] provider.aws (close)&#45;&gt;[root] aws_route_table_association.privaterouteassociation -->
<g id="edge21" class="edge">
<title>[root] provider.aws (close)&#45;&gt;[root] aws_route_table_association.privaterouteassociation</title>
<path fill="none" stroke="#000000" d="M889.5905,-359.8314C889.5905,-352.131 889.5905,-342.9743 889.5905,-334.4166"/>
<polygon fill="#000000" stroke="#000000" points="893.0906,-334.4132 889.5905,-324.4133 886.0906,-334.4133 893.0906,-334.4132"/>
</g>
<!-- [root] provider.aws (close)&#45;&gt;[root] aws_route_table_association.publicrouteassociation -->
<g id="edge22" class="edge">
<title>[root] provider.aws (close)&#45;&gt;[root] aws_route_table_association.publicrouteassociation</title>
<path fill="none" stroke="#000000" d="M812.6588,-365.6715C800.2696,-363.7384 787.58,-361.7894 775.5905,-360 695.6211,-348.0646 606.169,-335.4429 533.7327,-325.4057"/>
<polygon fill="#000000" stroke="#000000" points="534.0128,-321.9112 523.6273,-324.0069 533.0529,-328.8451 534.0128,-321.9112"/>
</g>
<!-- [root] root -->
<g id="node19" class="node">
<title>[root] root</title>
<ellipse fill="none" stroke="#000000" cx="731.5905" cy="-450" rx="47.3916" ry="18"/>
<text text-anchor="middle" x="731.5905" y="-446.3" font-family="Times,serif" font-size="14.00" fill="#000000">[root] root</text>
</g>
<!-- [root] root&#45;&gt;[root] meta.count&#45;boundary (count boundary fixup) -->
<g id="edge23" class="edge">
<title>[root] root&#45;&gt;[root] meta.count&#45;boundary (count boundary fixup)</title>
<path fill="none" stroke="#000000" d="M701.1266,-436.1177C678.6044,-425.8544 647.4894,-411.6754 621.6313,-399.892"/>
<polygon fill="#000000" stroke="#000000" points="622.9192,-396.6327 612.3681,-395.6708 620.0165,-403.0025 622.9192,-396.6327"/>
</g>
<!-- [root] root&#45;&gt;[root] provider.aws (close) -->
<g id="edge24" class="edge">
<title>[root] root&#45;&gt;[root] provider.aws (close)</title>
<path fill="none" stroke="#000000" d="M762.0545,-436.1177C785.0559,-425.6361 817.0196,-411.0703 843.193,-399.1432"/>
<polygon fill="#000000" stroke="#000000" points="844.8982,-402.2125 852.5466,-394.8808 841.9955,-395.8427 844.8982,-402.2125"/>
</g>
</g>
</svg>
